<svg width="247" height="27" viewBox="0 0 247 27" fill="none" xmlns="http://www.w3.org/2000/svg">
<path d="M158.691 23.5868H160.828V9.43474H158.691V6.79856H165.378V8.54676C165.841 7.88078 166.405 7.3813 167.071 7.04831C167.756 6.69681 168.542 6.52107 169.43 6.52107C170.632 6.52107 171.715 6.81706 172.677 7.40905C173.638 8.00103 174.388 8.84276 174.924 9.93422C175.461 11.0257 175.729 12.2929 175.729 13.7359C175.729 15.1603 175.451 16.4183 174.896 17.5098C174.36 18.6012 173.611 19.4522 172.649 20.0627C171.705 20.6547 170.632 20.9507 169.43 20.9507C168.597 20.9507 167.867 20.7934 167.238 20.4789C166.609 20.1644 166.072 19.6927 165.628 19.0637V23.7256H169.097V26.223H158.691V23.5868ZM168.098 18.1202C168.579 18.1202 169.004 17.9723 169.374 17.6763C169.744 17.3618 170.022 16.8808 170.207 16.2333C170.41 15.5858 170.512 14.7533 170.512 13.7359C170.512 12.7184 170.41 11.8859 170.207 11.2384C170.022 10.5725 169.744 10.0915 169.374 9.79548C169.004 9.49949 168.579 9.35149 168.098 9.35149C167.561 9.35149 167.08 9.54574 166.655 9.93422C166.248 10.3042 165.933 10.8222 165.711 11.4882C165.489 12.1542 165.378 12.9034 165.378 13.7359C165.378 14.5498 165.489 15.2898 165.711 15.9558C165.933 16.6218 166.248 17.149 166.655 17.5375C167.08 17.926 167.561 18.1202 168.098 18.1202Z" fill="black"/>
<path d="M185.172 20.9507C183.618 20.9507 182.24 20.6454 181.037 20.0349C179.853 19.4245 178.928 18.5735 178.262 17.482C177.596 16.3905 177.263 15.1418 177.263 13.7359C177.263 12.3299 177.596 11.0812 178.262 9.98972C178.928 8.89825 179.863 8.04728 181.065 7.43679C182.267 6.82631 183.636 6.52107 185.172 6.52107C186.707 6.52107 188.076 6.82631 189.279 7.43679C190.481 8.04728 191.415 8.89825 192.081 9.98972C192.747 11.0812 193.08 12.3299 193.08 13.7359C193.08 15.1233 192.738 16.3628 192.054 17.4543C191.388 18.5457 190.454 19.406 189.251 20.0349C188.049 20.6454 186.689 20.9507 185.172 20.9507ZM185.172 18.37C185.745 18.37 186.236 18.2035 186.643 17.8705C187.05 17.519 187.355 17.001 187.558 16.3165C187.762 15.6321 187.864 14.7718 187.864 13.7359C187.864 12.6999 187.762 11.8397 187.558 11.1552C187.355 10.4522 187.05 9.93423 186.643 9.60123C186.236 9.24974 185.745 9.074 185.172 9.074C184.58 9.074 184.08 9.24974 183.673 9.60123C183.285 9.93423 182.98 10.4522 182.758 11.1552C182.554 11.8397 182.452 12.6999 182.452 13.7359C182.452 14.7718 182.554 15.6321 182.758 16.3165C182.98 17.001 183.285 17.519 183.673 17.8705C184.08 18.2035 184.58 18.37 185.172 18.37Z" fill="black"/>
<path d="M194.19 18.037H196.327V9.43474H194.19V6.79856H200.878V8.68551C201.155 8.01953 201.553 7.50154 202.071 7.13155C202.589 6.76156 203.181 6.57657 203.847 6.57657C204.125 6.57657 204.448 6.63207 204.818 6.74306C204.929 6.78006 205.04 6.81706 205.151 6.85406C205.262 6.89106 205.364 6.92806 205.457 6.96506V5.66084H207.926V13.0144H205.54V12.6259C205.54 12.1819 205.392 11.7287 205.096 11.2662C204.818 10.7852 204.467 10.3875 204.041 10.073C203.634 9.75848 203.264 9.60123 202.931 9.60123C202.58 9.60123 202.265 9.74923 201.988 10.0452C201.729 10.3227 201.516 10.7297 201.35 11.2662C201.202 11.7842 201.128 12.4132 201.128 13.1531V18.037H204.513V20.6732H194.19V18.037Z" fill="black"/>
<path d="M215.427 20.8119C213.984 20.8119 212.856 20.4234 212.042 19.6465C211.247 18.8695 210.849 17.778 210.849 16.372V9.43474H208.573V6.79856H209.794C210.83 6.79856 211.672 6.50257 212.32 5.91059C212.967 5.3186 213.291 4.43063 213.291 3.24666V2.63618H215.649V6.79856H219.59V9.43474H215.649V16.2333C215.649 16.8068 215.788 17.2508 216.066 17.5653C216.362 17.8613 216.769 18.0093 217.287 18.0093C217.694 18.0093 218.128 17.963 218.591 17.8705C219.072 17.7595 219.479 17.6393 219.812 17.5098V20.2292C219.238 20.3957 218.572 20.5344 217.814 20.6454C217.074 20.7564 216.278 20.8119 215.427 20.8119Z" fill="black"/>
<path d="M224.999 20.9507C223.556 20.9507 222.437 20.6084 221.641 19.9239C220.846 19.221 220.448 18.2867 220.448 17.1213C220.448 15.8818 220.938 14.9198 221.919 14.2354C222.899 13.5509 224.351 13.1346 226.275 12.9866C227.182 12.9126 227.894 12.7924 228.412 12.6259C228.948 12.4594 229.337 12.2282 229.577 11.9322C229.836 11.6177 229.966 11.2107 229.966 10.7112C229.966 10.0267 229.836 9.53649 229.577 9.24049C229.318 8.9445 228.93 8.79651 228.412 8.79651C227.894 8.79651 227.33 8.97225 226.719 9.32374C226.127 9.67523 225.618 10.11 225.193 10.628C224.768 11.1459 224.527 11.6362 224.472 12.0987V12.3207H222.002V5.88284H224.444V7.07605C225.128 7.00206 225.766 6.90956 226.358 6.79856C226.71 6.70607 227.08 6.64132 227.468 6.60432C227.857 6.54882 228.264 6.52107 228.689 6.52107C230.576 6.52107 232.047 7.02056 233.102 8.01953C234.156 9.0185 234.683 10.4152 234.683 12.2097V18.037H236.459V20.6732H230.105V18.5365C229.568 19.3505 228.865 19.9609 227.996 20.3679C227.145 20.7564 226.146 20.9507 224.999 20.9507ZM227.024 18.3422C227.505 18.3422 227.977 18.185 228.44 17.8705C228.921 17.5375 229.309 17.0935 229.605 16.5385C229.92 15.9651 230.077 15.3176 230.077 14.5961V13.1254C229.836 13.3844 229.531 13.6156 229.161 13.8191C228.791 14.0041 228.338 14.1429 227.801 14.2354C227.043 14.3649 226.469 14.6238 226.081 15.0123C225.692 15.3823 225.498 15.8911 225.498 16.5385C225.498 17.075 225.637 17.5098 225.914 17.8428C226.192 18.1757 226.562 18.3422 227.024 18.3422Z" fill="black"/>
<path d="M237.062 18.037H239.227V3.88489H237.007V1.24872H243.999V18.037H246.164V20.6732H237.062V18.037Z" fill="black"/>
<path d="M0 23.5868H2.13669V9.43474H0V6.79856H6.68756V8.54676C7.15005 7.88078 7.71429 7.3813 8.38027 7.04831C9.06475 6.69681 9.85098 6.52107 10.739 6.52107C11.9414 6.52107 13.0236 6.81706 13.9856 7.40905C14.9476 8.00103 15.6968 8.84276 16.2333 9.93422C16.7698 11.0257 17.038 12.2929 17.038 13.7359C17.038 15.1603 16.7605 16.4183 16.2055 17.5098C15.6691 18.6012 14.9198 19.4522 13.9579 20.0627C13.0144 20.6547 11.9414 20.9507 10.739 20.9507C9.90647 20.9507 9.17575 20.7934 8.54676 20.4789C7.91778 20.1644 7.38129 19.6927 6.93731 19.0637V23.7256H10.406V26.223H0V23.5868ZM9.40699 18.1202C9.88797 18.1202 10.3135 17.9723 10.6835 17.6763C11.0534 17.3618 11.3309 16.8808 11.5159 16.2333C11.7194 15.5858 11.8212 14.7533 11.8212 13.7359C11.8212 12.7184 11.7194 11.8859 11.5159 11.2384C11.3309 10.5725 11.0534 10.0915 10.6835 9.79548C10.3135 9.49949 9.88797 9.35149 9.40699 9.35149C8.8705 9.35149 8.38952 9.54574 7.96403 9.93422C7.55704 10.3042 7.24255 10.8222 7.02055 11.4882C6.79856 12.1542 6.68756 12.9034 6.68756 13.7359C6.68756 14.5498 6.79856 15.2898 7.02055 15.9558C7.24255 16.6218 7.55704 17.149 7.96403 17.5375C8.38952 17.926 8.8705 18.1202 9.40699 18.1202Z" fill="black"/>
<path d="M18.1562 18.037H20.2929V9.43474H18.1562V6.79856H24.8438V8.68551C25.1213 8.01953 25.519 7.50154 26.037 7.13155C26.555 6.76156 27.147 6.57657 27.813 6.57657C28.0905 6.57657 28.4142 6.63207 28.7842 6.74306C28.8952 6.78006 29.0062 6.81706 29.1172 6.85406C29.2282 6.89106 29.3299 6.92806 29.4224 6.96506V5.66084H31.8921V13.0144H29.5057V12.6259C29.5057 12.1819 29.3577 11.7287 29.0617 11.2662C28.7842 10.7852 28.4327 10.3875 28.0072 10.073C27.6002 9.75848 27.2302 9.60123 26.8972 9.60123C26.5457 9.60123 26.2313 9.74923 25.9538 10.0452C25.6948 10.3227 25.482 10.7297 25.3155 11.2662C25.1675 11.7842 25.0935 12.4132 25.0935 13.1531V18.037H28.4789V20.6732H18.1562V18.037Z" fill="black"/>
<path d="M32.8167 18.037H34.9534V9.43474H32.8167V6.79856H39.754V18.037H41.8907V20.6732H32.8167V18.037ZM33.8712 0H40.2535L37.2011 5.54985H36.9236L33.8712 0Z" fill="black"/>
<path d="M43.4596 9.43474H41.7392V6.79856H50.6467V9.43474H48.7597L51.5069 16.7883H51.5901L54.3651 9.43474H52.0896V6.79856H58.9992V9.43474H57.2787L52.7834 20.6732H48.0105L43.4596 9.43474Z" fill="black"/>
<path d="M63.327 20.9507C61.884 20.9507 60.7648 20.6084 59.9693 19.9239C59.1739 19.221 58.7761 18.2867 58.7761 17.1213C58.7761 15.8818 59.2664 14.9198 60.2468 14.2354C61.2273 13.5509 62.6795 13.1346 64.6035 12.9866C65.5099 12.9126 66.2222 12.7924 66.7401 12.6259C67.2766 12.4594 67.6651 12.2282 67.9056 11.9322C68.1646 11.6177 68.2941 11.2107 68.2941 10.7112C68.2941 10.0267 68.1646 9.53649 67.9056 9.24049C67.6466 8.9445 67.2581 8.79651 66.7401 8.79651C66.2222 8.79651 65.6579 8.97225 65.0474 9.32374C64.4555 9.67523 63.9467 10.11 63.5212 10.628C63.0957 11.1459 62.8552 11.6362 62.7998 12.0987V12.3207H60.3301V5.88284H62.772V7.07605C63.4565 7.00206 64.0947 6.90956 64.6867 6.79856C65.0382 6.70607 65.4082 6.64132 65.7967 6.60432C66.1852 6.54882 66.5921 6.52107 67.0176 6.52107C68.9046 6.52107 70.3753 7.02056 71.4298 8.01953C72.4842 9.0185 73.0115 10.4152 73.0115 12.2097V18.037H74.7874V20.6732H68.4328V18.5365C67.8964 19.3505 67.1934 19.9609 66.3239 20.3679C65.4729 20.7564 64.474 20.9507 63.327 20.9507ZM65.3527 18.3422C65.8337 18.3422 66.3054 18.185 66.7679 17.8705C67.2489 17.5375 67.6374 17.0935 67.9334 16.5385C68.2479 15.9651 68.4051 15.3176 68.4051 14.5961V13.1254C68.1646 13.3844 67.8594 13.6156 67.4894 13.8191C67.1194 14.0041 66.6661 14.1429 66.1297 14.2354C65.3712 14.3649 64.7977 14.6238 64.4092 15.0123C64.0207 15.3823 63.8265 15.8911 63.8265 16.5385C63.8265 17.075 63.9652 17.5098 64.2427 17.8428C64.5202 18.1757 64.8902 18.3422 65.3527 18.3422Z" fill="black"/>
<path d="M87.2947 20.3679C86.8877 20.5159 86.3235 20.6362 85.602 20.7287C85.2135 20.8027 84.8251 20.8582 84.4366 20.8952C84.0481 20.9322 83.6596 20.9507 83.2711 20.9507C81.8281 20.9507 80.5332 20.6454 79.3862 20.0349C78.2392 19.406 77.342 18.5457 76.6945 17.4543C76.0655 16.3443 75.7511 15.1048 75.7511 13.7359C75.7511 12.3484 76.0655 11.1089 76.6945 10.0175C77.342 8.926 78.2392 8.07503 79.3862 7.46454C80.5332 6.83556 81.8281 6.52107 83.2711 6.52107C83.9556 6.52107 84.6586 6.58582 85.38 6.71531C86.046 6.82631 86.5918 6.94656 87.0172 7.07605V5.88284H89.4869L89.4592 12.7091H86.8785V12.4872C86.823 12.0062 86.601 11.4974 86.2125 10.9609C85.824 10.4245 85.3708 9.97122 84.8528 9.60123C84.3348 9.23124 83.8631 9.04625 83.4376 9.04625C82.9011 9.04625 82.4386 9.22199 82.0501 9.57349C81.6616 9.92498 81.3564 10.4522 81.1344 11.1552C80.9309 11.8397 80.8292 12.6999 80.8292 13.7359C80.8292 14.7533 80.9309 15.6136 81.1344 16.3165C81.3564 17.001 81.6616 17.519 82.0501 17.8705C82.4386 18.222 82.9011 18.3977 83.4376 18.3977C83.9001 18.3977 84.4088 18.222 84.9638 17.8705C85.5188 17.5005 85.9998 17.0473 86.4068 16.5108C86.8137 15.9743 87.0635 15.4656 87.156 14.9846V14.7626H89.7367V21.5889H87.2947V20.3679Z" fill="black"/>
<path d="M92.1782 18.8695H94.6201V20.0627C94.6201 20.5807 94.8051 21.1357 95.1751 21.7276C95.5451 22.3381 95.9891 22.8469 96.507 23.2539C97.0435 23.6793 97.5245 23.8921 97.95 23.8921C98.172 23.8921 98.357 23.8181 98.505 23.6701C98.653 23.5221 98.727 23.3279 98.727 23.0874V23.0596C98.727 22.8931 98.6622 22.6526 98.5327 22.3381C98.4217 22.0421 98.1442 21.4317 97.7003 20.5067C97.5893 20.2662 97.4598 20.0072 97.3118 19.7297C97.1823 19.4522 97.0435 19.1562 96.8955 18.8417L92.2614 9.43474H90.5965V6.79856H99.393V9.43474H97.7558L100.059 14.8458C100.114 14.9938 100.179 15.1603 100.253 15.3453C100.327 15.5118 100.401 15.6876 100.475 15.8726C100.642 16.2795 100.762 16.6033 100.836 16.8438C100.873 16.6773 100.91 16.5293 100.947 16.3998C100.984 16.2518 101.03 16.0946 101.086 15.9281L103.278 9.43474H100.975V6.79856H107.856V9.43474H105.97L102.806 17.6208C102.788 17.6578 102.778 17.6948 102.778 17.7318C102.778 17.7503 102.769 17.778 102.751 17.815C102.584 18.2775 102.464 18.703 102.39 19.0915C102.334 19.48 102.307 19.9054 102.307 20.3679V20.8119C102.307 22.0144 102.131 23.0411 101.779 23.8921C101.446 24.7431 100.965 25.3905 100.336 25.8345C99.7075 26.2785 98.9767 26.5005 98.1442 26.5005C97.7373 26.5005 97.321 26.4635 96.8955 26.3895C96.47 26.334 96.0723 26.2508 95.7023 26.1398C95.2953 26.0288 94.9531 25.89 94.6756 25.7235V27H92.1782V18.8695Z" fill="black"/>
<path d="M114.105 10.2672C114.105 8.35153 115.658 6.79856 117.573 6.79856H147.924C149.84 6.79856 151.393 8.35153 151.393 10.2672V17.2045C151.393 19.1202 149.84 20.6732 147.924 20.6732H117.573C115.658 20.6732 114.105 19.1202 114.105 17.2045V10.2672Z" fill="black"/>
</svg>
