<svg preserveAspectRatio="none" width="100%" height="100%" overflow="visible" style="display: block;" viewBox="0 0 40 40" fill="none" xmlns="http://www.w3.org/2000/svg">
<g id="draw_abstract">
<mask id="mask0_0_52" style="mask-type:alpha" maskUnits="userSpaceOnUse" x="0" y="0" width="40" height="40">
<rect id="Bounding box" width="40" height="40" fill="var(--fill-0, #D9D9D9)"/>
</mask>
<g mask="url(#mask0_0_52)">
<path id="draw_abstract_2" d="M4.9974 34.9974C4.77517 34.9974 4.5599 34.9488 4.35156 34.8516C4.14323 34.7543 3.96962 34.6363 3.83073 34.4974C3.4974 34.1918 3.33073 33.8099 3.33073 33.3516C3.33073 32.8932 3.48351 32.4974 3.78906 32.1641C4.31684 31.6085 4.94879 31.2752 5.6849 31.1641C6.42101 31.053 7.16406 31.0668 7.91406 31.2057C8.13629 31.2613 8.34462 31.3168 8.53906 31.3724C8.73351 31.428 8.90017 31.3863 9.03906 31.2474C9.20573 31.0807 9.26823 30.8724 9.22656 30.6224C9.1849 30.3724 9.13629 30.1363 9.08073 29.9141C8.96962 29.1641 8.95573 28.421 9.03906 27.6849C9.1224 26.9488 9.42795 26.303 9.95573 25.7474C10.4835 25.1918 11.1155 24.8585 11.8516 24.7474C12.5877 24.6363 13.3307 24.6502 14.0807 24.7891C14.303 24.8446 14.5182 24.9002 14.7266 24.9557C14.9349 25.0113 15.1085 24.9696 15.2474 24.8307C15.4141 24.6641 15.4696 24.4557 15.4141 24.2057C15.3585 23.9557 15.303 23.7196 15.2474 23.4974C15.1363 22.7474 15.1224 22.0043 15.2057 21.2682C15.2891 20.5321 15.5946 19.8863 16.1224 19.3307C16.6502 18.7752 17.2821 18.4418 18.0182 18.3307C18.7543 18.2196 19.4974 18.2335 20.2474 18.3724C20.4696 18.428 20.6849 18.4835 20.8932 18.5391C21.1016 18.5946 21.2752 18.553 21.4141 18.4141C21.5807 18.2474 21.6363 18.0391 21.5807 17.7891C21.5252 17.5391 21.4696 17.303 21.4141 17.0807C21.303 16.3307 21.296 15.5877 21.3932 14.8516C21.4905 14.1155 21.803 13.4696 22.3307 12.9141C22.8585 12.3585 23.4905 12.0252 24.2266 11.9141C24.9627 11.803 25.7057 11.8168 26.4557 11.9557C26.678 12.0113 26.8932 12.0668 27.1016 12.1224C27.3099 12.178 27.4835 12.1363 27.6224 11.9974C27.7891 11.8307 27.8446 11.6224 27.7891 11.3724C27.7335 11.1224 27.678 10.8863 27.6224 10.6641C27.5113 9.91406 27.5043 9.17101 27.6016 8.4349C27.6988 7.69879 28.0113 7.05295 28.5391 6.4974C29.0668 5.94184 29.6988 5.60851 30.4349 5.4974C31.171 5.38628 31.9141 5.40017 32.6641 5.53906C32.8863 5.59462 33.1016 5.64323 33.3099 5.6849C33.5182 5.72656 33.6918 5.67795 33.8307 5.53906C34.1363 5.20573 34.5182 5.03906 34.9766 5.03906C35.4349 5.03906 35.8307 5.19184 36.1641 5.4974C36.4974 5.80295 36.6641 6.1849 36.6641 6.64323C36.6641 7.10156 36.5113 7.4974 36.2057 7.83073C35.678 8.38629 35.046 8.72656 34.3099 8.85156C33.5738 8.97656 32.8307 8.96962 32.0807 8.83073C31.8585 8.77517 31.6432 8.71962 31.4349 8.66406C31.2266 8.60851 31.053 8.65017 30.9141 8.78906C30.7474 8.95573 30.6918 9.16406 30.7474 9.41406C30.803 9.66406 30.8585 9.90017 30.9141 10.1224C31.0252 10.8724 31.0321 11.6155 30.9349 12.3516C30.8377 13.0877 30.5252 13.7335 29.9974 14.2891C29.4696 14.8446 28.8377 15.178 28.1016 15.2891C27.3655 15.4002 26.6224 15.3863 25.8724 15.2474C25.6502 15.1918 25.4418 15.1363 25.2474 15.0807C25.053 15.0252 24.8863 15.0668 24.7474 15.2057C24.5807 15.3724 24.5182 15.5807 24.5599 15.8307C24.6016 16.0807 24.6502 16.3168 24.7057 16.5391C24.8168 17.2891 24.8307 18.0321 24.7474 18.7682C24.6641 19.5043 24.3585 20.1502 23.8307 20.7057C23.303 21.2335 22.671 21.5599 21.9349 21.6849C21.1988 21.8099 20.4557 21.803 19.7057 21.6641C19.4835 21.6085 19.2752 21.5599 19.0807 21.5182C18.8863 21.4766 18.7196 21.5252 18.5807 21.6641C18.4141 21.8307 18.3516 22.0321 18.3932 22.2682C18.4349 22.5043 18.4835 22.7335 18.5391 22.9557C18.6502 23.7057 18.6641 24.4488 18.5807 25.1849C18.4974 25.921 18.1918 26.5668 17.6641 27.1224C17.1363 27.678 16.4974 28.0113 15.7474 28.1224C14.9974 28.2335 14.2474 28.2196 13.4974 28.0807C13.2752 28.0252 13.0668 27.9766 12.8724 27.9349C12.678 27.8932 12.5113 27.9418 12.3724 28.0807C12.2057 28.2474 12.1502 28.4488 12.2057 28.6849C12.2613 28.921 12.3168 29.1502 12.3724 29.3724C12.4835 30.1224 12.4905 30.8655 12.3932 31.6016C12.296 32.3377 11.9835 32.9835 11.4557 33.5391C10.928 34.0946 10.296 34.428 9.5599 34.5391C8.82379 34.6502 8.08073 34.6363 7.33073 34.4974C7.10851 34.4418 6.90017 34.3932 6.70573 34.3516C6.51129 34.3099 6.34462 34.3585 6.20573 34.4974C6.03906 34.6641 5.85156 34.7891 5.64323 34.8724C5.4349 34.9557 5.21962 34.9974 4.9974 34.9974ZM9.9974 18.3307C7.69184 18.3307 5.72656 17.5182 4.10156 15.8932C2.47656 14.2682 1.66406 12.303 1.66406 9.9974C1.66406 7.66406 2.47656 5.69184 4.10156 4.08073C5.72656 2.46962 7.69184 1.66406 9.9974 1.66406C12.3307 1.66406 14.303 2.46962 15.9141 4.08073C17.5252 5.69184 18.3307 7.66406 18.3307 9.9974C18.3307 12.303 17.5252 14.2682 15.9141 15.8932C14.303 17.5182 12.3307 18.3307 9.9974 18.3307ZM26.6641 38.3307C25.7474 38.3307 24.9627 38.0043 24.3099 37.3516C23.6571 36.6988 23.3307 35.9141 23.3307 34.9974V26.6641C23.3307 25.7474 23.6571 24.9627 24.3099 24.3099C24.9627 23.6571 25.7474 23.3307 26.6641 23.3307H34.9974C35.9141 23.3307 36.6988 23.6571 37.3516 24.3099C38.0043 24.9627 38.3307 25.7474 38.3307 26.6641V34.9974C38.3307 35.9141 38.0043 36.6988 37.3516 37.3516C36.6988 38.0043 35.9141 38.3307 34.9974 38.3307H26.6641Z" fill="var(--fill-0, #909090)"/>
</g>
</g>
</svg>
