<svg preserveAspectRatio="none" width="100%" height="100%" overflow="visible" style="display: block;" viewBox="0 0 40 40" fill="none" xmlns="http://www.w3.org/2000/svg">
<g id="volunteer_activism">
<mask id="mask0_0_34" style="mask-type:alpha" maskUnits="userSpaceOnUse" x="0" y="0" width="40" height="40">
<rect id="Bounding box" width="40" height="40" fill="var(--fill-0, #D9D9D9)"/>
</mask>
<g mask="url(#mask0_0_34)">
<path id="volunteer_activism_2" d="M11.6641 33.3776V18.3359H14.3307C14.5252 18.3359 14.7196 18.3568 14.9141 18.3984C15.1085 18.4401 15.303 18.4887 15.4974 18.5443L27.0391 22.8359C27.428 22.9748 27.7405 23.2248 27.9766 23.5859C28.2127 23.947 28.3307 24.322 28.3307 24.7109C28.3307 25.2943 28.1293 25.7665 27.7266 26.1276C27.3238 26.4887 26.8585 26.6693 26.3307 26.6693H21.9557C21.8168 26.6693 21.7127 26.6623 21.6432 26.6484C21.5738 26.6345 21.4835 26.5998 21.3724 26.5443L18.7057 25.5026L18.1641 27.1276L21.3724 28.2526C21.428 28.2804 21.5113 28.3012 21.6224 28.3151C21.7335 28.329 21.8307 28.3359 21.9141 28.3359H33.3307C34.2196 28.3359 34.9974 28.6554 35.6641 29.2943C36.3307 29.9332 36.6641 30.7248 36.6641 31.6693L23.3724 36.6693L11.6641 33.3776ZM1.66406 36.6693V18.3359H8.33073V36.6693H1.66406ZM26.6641 21.6693L19.7474 14.9193C18.8863 14.0859 18.1571 13.1623 17.5599 12.1484C16.9627 11.1345 16.6641 10.0304 16.6641 8.83594C16.6641 7.30816 17.1988 6.00955 18.2682 4.9401C19.3377 3.87066 20.6363 3.33594 22.1641 3.33594C23.053 3.33594 23.8863 3.52344 24.6641 3.89844C25.4418 4.27344 26.1085 4.78038 26.6641 5.41927C27.2196 4.78038 27.8863 4.27344 28.6641 3.89844C29.4418 3.52344 30.2752 3.33594 31.1641 3.33594C32.6918 3.33594 33.9905 3.87066 35.0599 4.9401C36.1293 6.00955 36.6641 7.30816 36.6641 8.83594C36.6641 10.0304 36.3724 11.1345 35.7891 12.1484C35.2057 13.1623 34.4835 14.0859 33.6224 14.9193L26.6641 21.6693Z" fill="var(--fill-0, #909090)"/>
</g>
</g>
</svg>
