<svg preserveAspectRatio="none" width="100%" height="100%" overflow="visible" style="display: block;" viewBox="0 0 40 40" fill="none" xmlns="http://www.w3.org/2000/svg">
<g id="newspaper">
<mask id="mask0_0_66" style="mask-type:alpha" maskUnits="userSpaceOnUse" x="0" y="0" width="40" height="40">
<rect id="Bounding box" width="40" height="40" fill="var(--fill-0, #D9D9D9)"/>
</mask>
<g mask="url(#mask0_0_66)">
<path id="newspaper_2" d="M6.66927 35C5.7526 35 4.96788 34.6736 4.3151 34.0208C3.66233 33.3681 3.33594 32.5833 3.33594 31.6667V5L6.1276 7.79167L8.8776 5L11.6693 7.79167L14.4609 5L17.2109 7.79167L20.0026 5L22.7943 7.79167L25.5443 5L28.3359 7.79167L31.1276 5L33.8776 7.79167L36.6693 5V31.6667C36.6693 32.5833 36.3429 33.3681 35.6901 34.0208C35.0373 34.6736 34.2526 35 33.3359 35H6.66927ZM6.66927 31.6667H18.3359V21.6667H6.66927V31.6667ZM21.6693 31.6667H33.3359V28.3333H21.6693V31.6667ZM21.6693 25H33.3359V21.6667H21.6693V25ZM6.66927 18.3333H33.3359V13.3333H6.66927V18.3333Z" fill="var(--fill-0, #909090)"/>
</g>
</g>
</svg>
