<svg preserveAspectRatio="none" width="100%" height="100%" overflow="visible" style="display: block;" viewBox="0 0 40 40" fill="none" xmlns="http://www.w3.org/2000/svg">
<g id="language_japanese_kana">
<mask id="mask0_0_28" style="mask-type:alpha" maskUnits="userSpaceOnUse" x="0" y="0" width="40" height="40">
<rect id="Bounding box" width="40" height="40" fill="var(--fill-0, #D9D9D9)"/>
</mask>
<g mask="url(#mask0_0_28)">
<path id="language_japanese_kana_2" d="M13.5833 29.9974L12.3333 27.9974C14.5556 27.7752 16.2917 27.178 17.5417 26.2057C18.7917 25.2335 19.4167 23.9835 19.4167 22.4557C19.4167 21.6224 19.1319 20.8585 18.5625 20.1641C17.9931 19.4696 17.25 18.9696 16.3333 18.6641C15.6944 20.2474 14.9375 21.6641 14.0625 22.9141C13.1875 24.1641 12.2222 25.2474 11.1667 26.1641C11.25 26.4974 11.3403 26.8307 11.4375 27.1641C11.5347 27.4974 11.6389 27.8307 11.75 28.1641L9.66667 28.7891C9.58333 28.5113 9.51389 28.2682 9.45833 28.0599C9.40278 27.8516 9.34722 27.6641 9.29167 27.4974C8.56944 27.8863 7.88889 28.1849 7.25 28.3932C6.61111 28.6016 5.98611 28.7057 5.375 28.7057C4.48611 28.7057 3.76389 28.4141 3.20833 27.8307C2.65278 27.2474 2.375 26.4696 2.375 25.4974C2.375 24.0252 2.93056 22.5668 4.04167 21.1224C5.15278 19.678 6.58333 18.5391 8.33333 17.7057C8.36111 17.178 8.38889 16.6571 8.41667 16.1432C8.44444 15.6293 8.48611 15.1085 8.54167 14.5807C7.76389 14.6085 6.94444 14.6016 6.08333 14.5599C5.22222 14.5182 4.29167 14.4557 3.29167 14.3724L3.25 12.1641C3.97222 12.303 4.75 12.3932 5.58333 12.4349C6.41667 12.4766 7.48611 12.4974 8.79167 12.4974C8.84722 11.9974 8.90972 11.5043 8.97917 11.0182C9.04861 10.5321 9.05556 10.0391 9 9.53906L11.5 9.58073C11.3056 10.053 11.1667 10.5321 11.0833 11.0182C11 11.5043 10.9167 11.9835 10.8333 12.4557C12.4444 12.3724 13.9306 12.2474 15.2917 12.0807C16.6528 11.9141 17.9306 11.6918 19.125 11.4141L19.1667 13.5807C17.6944 13.803 16.2569 13.9905 14.8542 14.1432C13.4514 14.296 12.0417 14.4141 10.625 14.4974C10.5694 14.8863 10.5347 15.2891 10.5208 15.7057C10.5069 16.1224 10.4722 16.5252 10.4167 16.9141C11.1944 16.6918 11.9514 16.5391 12.6875 16.4557C13.4236 16.3724 14.1528 16.3585 14.875 16.4141C14.9583 16.1363 15.0208 15.8585 15.0625 15.5807C15.1042 15.303 15.1389 15.0252 15.1667 14.7474L17.5417 15.3307C17.4583 15.553 17.3681 15.7752 17.2708 15.9974C17.1736 16.2196 17.0833 16.4835 17 16.7891C18.4167 17.178 19.5486 17.9002 20.3958 18.9557C21.2431 20.0113 21.6667 21.1918 21.6667 22.4974C21.6667 24.4418 20.9514 26.0738 19.5208 27.3932C18.0903 28.7127 16.1111 29.5807 13.5833 29.9974ZM5.75 26.4557C6.22222 26.4557 6.70833 26.3585 7.20833 26.1641C7.70833 25.9696 8.23611 25.678 8.79167 25.2891C8.59722 24.2335 8.45833 23.2752 8.375 22.4141C8.29167 21.553 8.25 20.7335 8.25 19.9557C7.19444 20.6224 6.31944 21.4418 5.625 22.4141C4.93056 23.3863 4.58333 24.303 4.58333 25.1641C4.58333 25.5252 4.70139 25.8307 4.9375 26.0807C5.17361 26.3307 5.44444 26.4557 5.75 26.4557ZM10.6667 23.7474C11.4722 22.9696 12.1736 22.1293 12.7708 21.2266C13.3681 20.3238 13.8611 19.3585 14.25 18.3307C13.6111 18.3307 12.9653 18.3863 12.3125 18.4974C11.6597 18.6085 11 18.7752 10.3333 18.9974C10.2778 19.7196 10.2847 20.4696 10.3542 21.2474C10.4236 22.0252 10.5278 22.8585 10.6667 23.7474ZM29.25 26.0807C30.0278 26.0807 30.7847 25.9002 31.5208 25.5391C32.2569 25.178 32.9306 24.6641 33.5417 23.9974V19.5807C32.9028 19.6641 32.3125 19.7613 31.7708 19.8724C31.2292 19.9835 30.7222 20.1085 30.25 20.2474C29 20.6363 28.0625 21.1224 27.4375 21.7057C26.8125 22.2891 26.5 22.9696 26.5 23.7474C26.5 24.4696 26.75 25.0391 27.25 25.4557C27.75 25.8724 28.4167 26.0807 29.25 26.0807ZM28.2917 28.9141C26.7083 28.9141 25.4583 28.4627 24.5417 27.5599C23.625 26.6571 23.1667 25.428 23.1667 23.8724C23.1667 22.428 23.625 21.2474 24.5417 20.3307C25.4583 19.4141 26.9306 18.678 28.9583 18.1224C29.5972 17.9557 30.2986 17.803 31.0625 17.6641C31.8264 17.5252 32.6528 17.4002 33.5417 17.2891C33.4861 15.9835 33.1806 15.0321 32.625 14.4349C32.0694 13.8377 31.2083 13.5391 30.0417 13.5391C29.3194 13.5391 28.6042 13.671 27.8958 13.9349C27.1875 14.1988 26.2778 14.6641 25.1667 15.3307L23.8333 12.9974C24.75 12.303 25.8264 11.7405 27.0625 11.3099C28.2986 10.8793 29.5556 10.6641 30.8333 10.6641C32.8056 10.6641 34.3056 11.2752 35.3333 12.4974C36.3611 13.7196 36.875 15.4974 36.875 17.8307V28.5391H34.0833L33.8333 26.6641C33.0556 27.3585 32.2014 27.9071 31.2708 28.3099C30.3403 28.7127 29.3472 28.9141 28.2917 28.9141Z" fill="var(--fill-0, #909090)"/>
</g>
</g>
</svg>
