<svg preserveAspectRatio="none" width="100%" height="100%" overflow="visible" style="display: block;" viewBox="0 0 40 40" fill="none" xmlns="http://www.w3.org/2000/svg">
<g id="diversity_3">
<mask id="mask0_0_71" style="mask-type:alpha" maskUnits="userSpaceOnUse" x="0" y="0" width="40" height="40">
<rect id="Bounding box" width="40" height="40" fill="var(--fill-0, #D9D9D9)"/>
</mask>
<g mask="url(#mask0_0_71)">
<path id="diversity_3_2" d="M1.66406 33.3307V26.6641C1.66406 25.7196 1.99045 24.928 2.64323 24.2891C3.29601 23.6502 4.08073 23.3307 4.9974 23.3307H10.4557C11.0113 23.3307 11.5391 23.4696 12.0391 23.7474C12.5391 24.0252 12.9418 24.4002 13.2474 24.8724C14.053 25.9557 15.046 26.803 16.2266 27.4141C17.4071 28.0252 18.6641 28.3307 19.9974 28.3307C21.3585 28.3307 22.6293 28.0252 23.8099 27.4141C24.9905 26.803 25.9696 25.9557 26.7474 24.8724C27.1085 24.4002 27.5321 24.0252 28.0182 23.7474C28.5043 23.4696 29.0113 23.3307 29.5391 23.3307H34.9974C35.9418 23.3307 36.7335 23.6502 37.3724 24.2891C38.0113 24.928 38.3307 25.7196 38.3307 26.6641V33.3307H26.6641V29.5391C25.6918 30.2335 24.6432 30.7613 23.5182 31.1224C22.3932 31.4835 21.2196 31.6641 19.9974 31.6641C18.803 31.6641 17.6363 31.4766 16.4974 31.1016C15.3585 30.7266 14.303 30.1918 13.3307 29.4974V33.3307H1.66406ZM19.9974 26.6641C18.9418 26.6641 17.9418 26.421 16.9974 25.9349C16.053 25.4488 15.2613 24.7752 14.6224 23.9141C14.1502 23.2196 13.5599 22.671 12.8516 22.2682C12.1432 21.8655 11.3724 21.6641 10.5391 21.6641C11.1502 20.6363 12.4418 19.8238 14.4141 19.2266C16.3863 18.6293 18.2474 18.3307 19.9974 18.3307C21.7474 18.3307 23.6085 18.6293 25.5807 19.2266C27.553 19.8238 28.8446 20.6363 29.4557 21.6641C28.6502 21.6641 27.8863 21.8655 27.1641 22.2682C26.4418 22.671 25.8446 23.2196 25.3724 23.9141C24.7613 24.803 23.9835 25.4835 23.0391 25.9557C22.0946 26.428 21.0807 26.6641 19.9974 26.6641ZM6.66406 21.6641C5.27517 21.6641 4.09462 21.178 3.1224 20.2057C2.15017 19.2335 1.66406 18.053 1.66406 16.6641C1.66406 15.2474 2.15017 14.0599 3.1224 13.1016C4.09462 12.1432 5.27517 11.6641 6.66406 11.6641C8.08073 11.6641 9.26823 12.1432 10.2266 13.1016C11.1849 14.0599 11.6641 15.2474 11.6641 16.6641C11.6641 18.053 11.1849 19.2335 10.2266 20.2057C9.26823 21.178 8.08073 21.6641 6.66406 21.6641ZM33.3307 21.6641C31.9418 21.6641 30.7613 21.178 29.7891 20.2057C28.8168 19.2335 28.3307 18.053 28.3307 16.6641C28.3307 15.2474 28.8168 14.0599 29.7891 13.1016C30.7613 12.1432 31.9418 11.6641 33.3307 11.6641C34.7474 11.6641 35.9349 12.1432 36.8932 13.1016C37.8516 14.0599 38.3307 15.2474 38.3307 16.6641C38.3307 18.053 37.8516 19.2335 36.8932 20.2057C35.9349 21.178 34.7474 21.6641 33.3307 21.6641ZM19.9974 16.6641C18.6085 16.6641 17.428 16.178 16.4557 15.2057C15.4835 14.2335 14.9974 13.053 14.9974 11.6641C14.9974 10.2474 15.4835 9.0599 16.4557 8.10156C17.428 7.14323 18.6085 6.66406 19.9974 6.66406C21.4141 6.66406 22.6016 7.14323 23.5599 8.10156C24.5182 9.0599 24.9974 10.2474 24.9974 11.6641C24.9974 13.053 24.5182 14.2335 23.5599 15.2057C22.6016 16.178 21.4141 16.6641 19.9974 16.6641Z" fill="var(--fill-0, #909090)"/>
</g>
</g>
</svg>
