<svg xmlns="http://www.w3.org/2000/svg" viewBox="0 0 200 200" fill="none" stroke="currentColor" stroke-width="0.5" stroke-opacity="0.4">
  <!-- Circuit/architecture style placeholder - monochrome -->
  <rect x="20" y="20" width="40" height="40" rx="4" fill="none"/>
  <rect x="140" y="20" width="40" height="40" rx="4" fill="none"/>
  <rect x="20" y="140" width="40" height="40" rx="4" fill="none"/>
  <rect x="140" y="140" width="40" height="40" rx="4" fill="none"/>
  <line x1="60" y1="40" x2="100" y2="40"/>
  <line x1="100" y1="40" x2="140" y2="40"/>
  <line x1="60" y1="160" x2="100" y2="160"/>
  <line x1="100" y1="160" x2="140" y2="160"/>
  <line x1="40" y1="60" x2="40" y2="100"/>
  <line x1="40" y1="100" x2="40" y2="140"/>
  <line x1="160" y1="60" x2="160" y2="100"/>
  <line x1="160" y1="100" x2="160" y2="140"/>
  <circle cx="100" cy="100" r="20" fill="none"/>
  <circle cx="70" cy="70" r="6" fill="currentColor" fill-opacity="0.3"/>
  <circle cx="130" cy="70" r="6" fill="currentColor" fill-opacity="0.3"/>
  <circle cx="70" cy="130" r="6" fill="currentColor" fill-opacity="0.3"/>
  <circle cx="130" cy="130" r="6" fill="currentColor" fill-opacity="0.3"/>
</svg>
