<svg xmlns="http://www.w3.org/2000/svg" width="1920" height="1080" viewBox="0 0 1920 1080" fill="none">
  <rect width="1920" height="1080" fill="#040404"/>
  <g opacity="0.18" stroke="#8C8C8C" stroke-width="1">
    <path d="M0 780C180 720 320 730 470 760C590 784 730 816 900 804C1080 791 1220 705 1410 717C1605 729 1750 804 1920 840"/>
    <path d="M0 835C190 768 360 784 500 826C654 873 816 908 992 895C1166 882 1324 805 1502 816C1686 828 1816 888 1920 930"/>
    <path d="M0 900C200 845 365 870 542 923C695 968 859 1017 1044 1000C1214 984 1370 913 1542 922C1708 931 1838 980 1920 1028"/>
  </g>
  <g opacity="0.2" stroke="#6E6E6E" stroke-width="1">
    <path d="M0 1040L120 970L280 1015L420 900L570 930L760 830L880 870L980 768L1120 812L1290 730L1460 772L1610 706L1920 760"/>
    <path d="M0 990L170 930L340 980L470 860L640 898L790 790L920 838L1030 720L1170 770L1340 688L1490 738L1680 676L1920 712"/>
    <path d="M0 940L180 885L350 928L500 812L660 848L820 748L946 790L1075 680L1218 727L1388 644L1550 690L1752 630L1920 662"/>
  </g>
  <g opacity="0.12" stroke="#7A7A7A" stroke-width="1">
    <path d="M120 0L180 1080"/>
    <path d="M260 0L320 1080"/>
    <path d="M400 0L460 1080"/>
    <path d="M540 0L600 1080"/>
    <path d="M680 0L740 1080"/>
    <path d="M820 0L880 1080"/>
    <path d="M960 0L1020 1080"/>
    <path d="M1100 0L1160 1080"/>
    <path d="M1240 0L1300 1080"/>
    <path d="M1380 0L1440 1080"/>
    <path d="M1520 0L1580 1080"/>
    <path d="M1660 0L1720 1080"/>
  </g>
  <g opacity="0.14" stroke="#8E8E8E" stroke-width="1">
    <circle cx="1540" cy="230" r="170"/>
    <circle cx="1540" cy="230" r="160"/>
    <circle cx="1540" cy="230" r="150"/>
    <circle cx="1540" cy="230" r="140"/>
  </g>
  <g opacity="0.12" fill="#888">
    <circle cx="138" cy="140" r="1.5"/>
    <circle cx="220" cy="180" r="1.2"/>
    <circle cx="310" cy="120" r="1.4"/>
    <circle cx="420" cy="166" r="1.2"/>
    <circle cx="580" cy="134" r="1.5"/>
    <circle cx="660" cy="188" r="1.4"/>
    <circle cx="910" cy="150" r="1.4"/>
    <circle cx="1032" cy="190" r="1.2"/>
    <circle cx="1180" cy="166" r="1.3"/>
    <circle cx="1290" cy="132" r="1.4"/>
    <circle cx="1428" cy="170" r="1.3"/>
    <circle cx="1660" cy="128" r="1.5"/>
  </g>
</svg>
