<svg width="285" height="27" viewBox="0 0 285 27" fill="none" xmlns="http://www.w3.org/2000/svg">
<path d="M227.828 17.5948H229.935V9.11162H227.828V6.51193H234.423V8.31803C234.843 7.62478 235.372 7.10484 236.01 6.75822C236.667 6.41159 237.433 6.23828 238.309 6.23828C239.367 6.23828 240.279 6.48457 241.045 6.97714C241.812 7.45147 242.405 8.14472 242.824 9.05689C243.244 9.96906 243.454 11.0363 243.454 12.2586V17.5948H245.26V20.1945H236.995V17.5948H238.692V12.6144C238.692 11.4468 238.528 10.5711 238.2 9.98731C237.871 9.40352 237.415 9.11162 236.831 9.11162C236.393 9.11162 236.01 9.27581 235.682 9.60419C235.354 9.91433 235.098 10.3613 234.916 10.9451C234.752 11.5289 234.669 12.2039 234.669 12.9701V17.5948H236.311V20.1945H227.828V17.5948Z" fill="white"/>
<path d="M254.023 20.4682C252.49 20.4682 251.131 20.1671 249.945 19.5651C248.778 18.9631 247.866 18.1239 247.209 17.0475C246.552 15.9712 246.224 14.7397 246.224 13.3532C246.224 11.9667 246.552 10.7353 247.209 9.65892C247.866 8.58256 248.787 7.74336 249.973 7.14133C251.159 6.5393 252.509 6.23828 254.023 6.23828C255.537 6.23828 256.887 6.5393 258.073 7.14133C259.259 7.74336 260.18 8.58256 260.837 9.65892C261.493 10.7353 261.822 11.9667 261.822 13.3532C261.822 14.7215 261.484 15.9438 260.809 17.0201C260.153 18.0965 259.231 18.9448 258.045 19.5651C256.86 20.1671 255.519 20.4682 254.023 20.4682ZM254.023 17.9232C254.588 17.9232 255.072 17.759 255.473 17.4306C255.874 17.084 256.175 16.5732 256.376 15.8982C256.577 15.2232 256.677 14.3749 256.677 13.3532C256.677 12.3316 256.577 11.4833 256.376 10.8083C256.175 10.115 255.874 9.60419 255.473 9.27581C255.072 8.92919 254.588 8.75588 254.023 8.75588C253.439 8.75588 252.946 8.92919 252.545 9.27581C252.162 9.60419 251.861 10.115 251.642 10.8083C251.441 11.4833 251.341 12.3316 251.341 13.3532C251.341 14.3749 251.441 15.2232 251.642 15.8982C251.861 16.5732 252.162 17.084 252.545 17.4306C252.946 17.759 253.439 17.9232 254.023 17.9232Z" fill="white"/>
<path d="M263.655 9.11162H262.068V6.51193H269.347V9.11162H268.581L270.469 16.856H270.551L271.974 11.6019L271.153 9.11162H270.031V6.51193H277.748V9.11162H276.49L278.624 16.8833H278.734L280.622 9.11162H279.199V6.51193H285V9.11162H283.386L280.293 20.1945H275.258L273.507 13.5995L271.701 20.1945H266.72L263.655 9.11162Z" fill="white"/>
<path d="M1.55689 9.49184H0V6.87815H7.1402V9.49184H6.3886L8.24075 17.2779H8.32128L9.71711 11.9955L8.91182 9.49184H7.81127V6.87815H15.3809V9.49184H14.1462L16.2399 17.3054H16.3473L18.1994 9.49184H16.8036V6.87815H22.4943V9.49184H20.9106L17.8773 20.6344H12.9383L11.2203 14.0039L9.44868 20.6344H4.56328L1.55689 9.49184Z" fill="white"/>
<path d="M33.8167 20.3043C33.4052 20.451 32.8683 20.5794 32.2062 20.6895C31.8304 20.7445 31.4456 20.7903 31.0519 20.827C30.6761 20.8821 30.2914 20.9096 29.8977 20.9096C28.5198 20.9096 27.285 20.6161 26.1934 20.0292C25.1018 19.4422 24.2428 18.6169 23.6165 17.553C23.008 16.4892 22.7038 15.2603 22.7038 13.8663C22.7038 12.4357 23.008 11.1701 23.6165 10.0696C24.2428 8.96911 25.1107 8.11622 26.2202 7.51094C27.3297 6.90566 28.6003 6.60302 30.0319 6.60302C31.4635 6.60302 32.7162 6.90566 33.7899 7.51094C34.8815 8.09787 35.7226 8.93242 36.3131 10.0146C36.9037 11.0784 37.2079 12.3165 37.2258 13.7288C37.2258 13.8572 37.2168 13.9947 37.1989 14.1415C37.1989 14.2699 37.19 14.4074 37.1721 14.5542H27.5087C27.5803 15.4529 27.7234 16.2141 27.9382 16.8377C28.1708 17.4613 28.4661 17.929 28.824 18.2408C29.1819 18.5527 29.5935 18.7086 30.0587 18.7086C30.4703 18.7086 30.9267 18.5527 31.4277 18.2408C31.9467 17.929 32.3941 17.5622 32.7699 17.1403C33.1636 16.7185 33.4051 16.3425 33.4946 16.0123V15.8473H36.2057V21.5424H33.8167V20.3043ZM32.4209 12.9034C32.3314 11.968 32.1793 11.2068 31.9646 10.6199C31.7498 10.0146 31.4725 9.56521 31.1325 9.27174C30.7924 8.97828 30.3988 8.83154 29.9514 8.83154C29.504 8.83154 29.1103 8.98745 28.7703 9.29926C28.4303 9.59272 28.1529 10.0421 27.9382 10.6474C27.7413 11.2527 27.6071 12.0047 27.5355 12.9034H32.4209Z" fill="white"/>
<path d="M48.0256 20.9096C47.1666 20.9096 46.4151 20.7445 45.7708 20.4143C45.1266 20.0658 44.5808 19.5523 44.1334 18.8736V20.6344H39.7312V3.98933H37.5838V1.37563H44.3482V8.44637C44.7776 7.84109 45.2966 7.38255 45.905 7.07074C46.5314 6.75893 47.2382 6.60302 48.0256 6.60302C49.1888 6.60302 50.2357 6.90566 51.1662 7.51094C52.0968 8.09787 52.8215 8.93242 53.3405 10.0146C53.8595 11.0967 54.1189 12.344 54.1189 13.7563C54.1189 15.1686 53.8595 16.4158 53.3405 17.498C52.8215 18.5802 52.0968 19.4239 51.1662 20.0292C50.2536 20.6161 49.2067 20.9096 48.0256 20.9096ZM46.7372 18.1033C47.2203 18.1033 47.6319 17.9566 47.9719 17.6631C48.3298 17.3513 48.6072 16.8744 48.8041 16.2324C49.0009 15.5905 49.0993 14.7651 49.0993 13.7563C49.0993 12.7475 49.0009 11.9221 48.8041 11.2802C48.6072 10.6199 48.3298 10.143 47.9719 9.84951C47.6319 9.55604 47.2203 9.40931 46.7372 9.40931C46.2361 9.40931 45.7798 9.6019 45.3682 9.98707C44.9745 10.3539 44.6613 10.8675 44.4287 11.5278C44.2139 12.1881 44.1066 12.9309 44.1066 13.7563C44.1066 14.5633 44.2139 15.297 44.4287 15.9573C44.6613 16.6176 44.9745 17.1403 45.3682 17.5255C45.7798 17.9107 46.2361 18.1033 46.7372 18.1033Z" fill="white"/>
<path d="M56.4677 13.041H58.9909V13.1785C58.9909 13.8755 59.2146 14.6367 59.662 15.4621C60.1273 16.2875 60.7178 16.9844 61.4336 17.553C62.1673 18.1033 62.901 18.3784 63.6347 18.3784C64.1716 18.3784 64.619 18.2317 64.9769 17.9382C65.3348 17.6264 65.5943 17.2137 65.7553 16.7001C65.9343 16.1682 66.0238 15.563 66.0238 14.8843C66.0238 14.1506 65.9253 13.5362 65.7285 13.041C65.5316 12.5457 65.2632 12.1789 64.9232 11.9405C64.6011 11.6837 64.2342 11.5553 63.8226 11.5553C63.5184 11.5553 63.2052 11.6195 62.8831 11.7479C62.5789 11.8763 62.2926 12.0597 62.0242 12.2981L61.7557 12.5457L60.4673 10.7849L65.9432 6.02526H61.2457C60.7804 6.02526 60.4225 6.05277 60.172 6.1078C59.9394 6.16282 59.7604 6.2637 59.6351 6.41043C59.5278 6.55717 59.4741 6.78644 59.4741 7.09825V8.03368H56.924V0H59.5009V1.37563H71.2313V3.96181L64.789 9.90453C65.0216 9.81283 65.2811 9.74863 65.5674 9.71195C65.8537 9.65692 66.1222 9.62941 66.3727 9.62941C67.339 9.62941 68.207 9.84951 68.9765 10.2897C69.7639 10.7116 70.3812 11.3168 70.8286 12.1055C71.276 12.8759 71.4997 13.7655 71.4997 14.7743C71.4997 15.9481 71.2044 17.0028 70.6139 17.9382C70.0233 18.8736 69.1733 19.6165 68.0638 20.1667C66.9543 20.6986 65.639 20.9646 64.1179 20.9646C63.5453 20.9646 62.9726 20.9004 62.4 20.772C61.8273 20.6436 61.3173 20.4694 60.8699 20.2493C60.5836 20.1576 60.2794 20.0659 59.9573 19.9741C59.653 19.8641 59.3488 19.7724 59.0446 19.699V21.4323H56.4677V13.041Z" fill="white"/>
<path d="M72.9723 23.5233H75.0392V9.49184H72.9723V6.87815H79.4414V8.61144C79.8888 7.95114 80.4346 7.45591 81.0788 7.12576C81.7409 6.77727 82.5015 6.60302 83.3604 6.60302C84.5236 6.60302 85.5705 6.89649 86.5011 7.48343C87.4316 8.07036 88.1564 8.90491 88.6753 9.98707C89.1943 11.0692 89.4538 12.3256 89.4538 13.7563C89.4538 15.1686 89.1853 16.4158 88.6485 17.498C88.1295 18.5802 87.4048 19.4239 86.4742 20.0292C85.5616 20.6161 84.5236 20.9096 83.3604 20.9096C82.5552 20.9096 81.8483 20.7537 81.2399 20.4419C80.6314 20.13 80.1125 19.6623 79.683 19.0387V23.6608H83.0383V26.137H72.9723V23.5233ZM82.072 18.1033C82.5373 18.1033 82.9489 17.9566 83.3068 17.6631C83.6647 17.3513 83.9331 16.8744 84.112 16.2324C84.3089 15.5905 84.4073 14.7651 84.4073 13.7563C84.4073 12.7475 84.3089 11.9221 84.112 11.2802C83.9331 10.6199 83.6647 10.143 83.3068 9.84951C82.9489 9.55604 82.5373 9.40931 82.072 9.40931C81.553 9.40931 81.0878 9.6019 80.6762 9.98707C80.2825 10.3539 79.9782 10.8675 79.7635 11.5278C79.5488 12.1881 79.4414 12.9309 79.4414 13.7563C79.4414 14.5633 79.5488 15.297 79.7635 15.9573C79.9782 16.6176 80.2825 17.1403 80.6762 17.5255C81.0878 17.9107 81.553 18.1033 82.072 18.1033Z" fill="white"/>
<path d="M90.5355 18.0207H92.6023V9.49184H90.5355V6.87815H97.0046V8.74901C97.273 8.0887 97.6578 7.57513 98.1588 7.2083C98.6599 6.84146 99.2325 6.65805 99.8768 6.65805C100.145 6.65805 100.458 6.71307 100.816 6.82312C100.924 6.85981 101.031 6.89649 101.138 6.93317C101.246 6.96986 101.344 7.00654 101.434 7.04322V5.75013H103.823V13.041H101.514V12.6558C101.514 12.2156 101.371 11.7662 101.085 11.3077C100.816 10.8308 100.476 10.4364 100.065 10.1246C99.671 9.81283 99.3131 9.65692 98.991 9.65692C98.6509 9.65692 98.3467 9.80365 98.0783 10.0971C97.8278 10.3722 97.622 10.7758 97.4609 11.3077C97.3177 11.8212 97.2462 12.4449 97.2462 13.1785V18.0207H100.521V20.6344H90.5355V18.0207Z" fill="white"/>
<path d="M105.556 18.0207H107.623V9.49184H105.556V6.87815H112.267V18.0207H114.334V20.6344H105.556V18.0207ZM106.576 0.137563H112.75L109.797 5.64008H109.529L106.576 0.137563Z" fill="white"/>
<path d="M116.69 9.49184H115.026V6.87815H123.642V9.49184H121.817L124.474 16.7827H124.555L127.239 9.49184H125.038V6.87815H131.722V9.49184H130.058L125.709 20.6344H121.092L116.69 9.49184Z" fill="white"/>
<path d="M135.908 20.9096C134.513 20.9096 133.43 20.5702 132.66 19.8916C131.891 19.1946 131.506 18.2684 131.506 17.1128C131.506 15.8839 131.98 14.9302 132.929 14.2515C133.877 13.5729 135.282 13.1602 137.143 13.0135C138.02 12.9401 138.709 12.8209 139.21 12.6558C139.729 12.4907 140.105 12.2614 140.338 11.968C140.588 11.6562 140.713 11.2527 140.713 10.7574C140.713 10.0788 140.588 9.59272 140.338 9.29926C140.087 9.00579 139.711 8.85905 139.21 8.85905C138.709 8.85905 138.163 9.0333 137.573 9.3818C137 9.73029 136.508 10.1613 136.096 10.6749C135.685 11.1885 135.452 11.6745 135.398 12.1331V12.3532H133.009V5.97023H135.372V7.15327C136.034 7.07991 136.651 6.9882 137.224 6.87815C137.564 6.78644 137.922 6.72224 138.297 6.68556C138.673 6.63054 139.067 6.60302 139.479 6.60302C141.304 6.60302 142.727 7.09825 143.747 8.0887C144.767 9.07916 145.277 10.464 145.277 12.2431V18.0207H146.995V20.6344H140.848V18.516C140.329 19.323 139.649 19.9283 138.807 20.3318C137.984 20.717 137.018 20.9096 135.908 20.9096ZM137.868 18.3234C138.333 18.3234 138.79 18.1675 139.237 17.8557C139.702 17.5255 140.078 17.0853 140.364 16.5351C140.669 15.9665 140.821 15.3245 140.821 14.6092V13.151C140.588 13.4078 140.293 13.6371 139.935 13.8388C139.577 14.0223 139.139 14.1598 138.62 14.2515C137.886 14.3799 137.331 14.6367 136.955 15.0219C136.58 15.3887 136.392 15.8931 136.392 16.5351C136.392 17.067 136.526 17.498 136.794 17.8282C137.063 18.1583 137.421 18.3234 137.868 18.3234Z" fill="white"/>
<path d="M158.255 20.3318C157.861 20.4785 157.315 20.5978 156.617 20.6895C156.241 20.7628 155.865 20.8179 155.49 20.8545C155.114 20.8912 154.738 20.9096 154.362 20.9096C152.966 20.9096 151.714 20.6069 150.604 20.0017C149.495 19.378 148.627 18.5251 148.001 17.443C147.392 16.3425 147.088 15.1136 147.088 13.7563C147.088 12.3807 147.392 11.1518 148.001 10.0696C148.627 8.98745 149.495 8.14373 150.604 7.53845C151.714 6.91483 152.966 6.60302 154.362 6.60302C155.024 6.60302 155.704 6.66722 156.402 6.79561C157.047 6.90566 157.574 7.02488 157.986 7.15327V5.97023H160.375L160.348 12.7383H157.852V12.5182C157.798 12.0413 157.583 11.5369 157.208 11.005C156.832 10.4731 156.393 10.0238 155.892 9.65692C155.391 9.29009 154.935 9.10667 154.523 9.10667C154.004 9.10667 153.557 9.28092 153.181 9.62941C152.805 9.9779 152.51 10.5006 152.295 11.1976C152.099 11.8763 152 12.7292 152 13.7563C152 14.7651 152.099 15.618 152.295 16.315C152.51 16.9936 152.805 17.5072 153.181 17.8557C153.557 18.2042 154.004 18.3784 154.523 18.3784C154.971 18.3784 155.463 18.2042 156 17.8557C156.537 17.4888 157.002 17.0395 157.396 16.5076C157.789 15.9756 158.031 15.4712 158.12 14.9944V14.7743H160.617V21.5424H158.255V20.3318Z" fill="white"/>
<path d="M162.978 18.8461H165.341V20.0292C165.341 20.5427 165.52 21.093 165.877 21.6799C166.235 22.2852 166.665 22.7896 167.166 23.1931C167.685 23.615 168.15 23.8259 168.562 23.8259C168.776 23.8259 168.955 23.7525 169.099 23.6058C169.242 23.4591 169.313 23.2665 169.313 23.028V23.0005C169.313 22.8355 169.251 22.597 169.125 22.2852C169.018 21.9917 168.75 21.3865 168.32 20.4694C168.213 20.2309 168.087 19.9741 167.944 19.699C167.819 19.4239 167.685 19.1304 167.542 18.8186L163.059 9.49184H161.448V6.87815H169.958V9.49184H168.374L170.602 14.8568C170.655 15.0035 170.718 15.1686 170.79 15.352C170.861 15.5171 170.933 15.6913 171.004 15.8748C171.165 16.2783 171.282 16.5993 171.353 16.8377C171.389 16.6726 171.425 16.5259 171.461 16.3975C171.497 16.2508 171.541 16.0949 171.595 15.9298L173.716 9.49184H171.488V6.87815H178.145V9.49184H176.319L173.259 17.6081C173.241 17.6447 173.232 17.6814 173.232 17.7181C173.232 17.7365 173.223 17.764 173.206 17.8006C173.044 18.2592 172.928 18.6811 172.857 19.0662C172.803 19.4514 172.776 19.8733 172.776 20.3318V20.772C172.776 21.9642 172.606 22.9822 172.266 23.8259C171.944 24.6696 171.479 25.3116 170.87 25.7518C170.262 26.192 169.555 26.4121 168.75 26.4121C168.356 26.4121 167.953 26.3754 167.542 26.302C167.13 26.247 166.745 26.1645 166.387 26.0544C165.994 25.9444 165.663 25.8068 165.394 25.6417V26.9073H162.978V18.8461Z" fill="white"/>
<path d="M184.273 9.625C184.273 7.96815 185.617 6.625 187.273 6.625H217.344C219 6.625 220.344 7.96815 220.344 9.625V17.3813C220.344 19.0381 219 20.3813 217.344 20.3813H187.273C185.617 20.3813 184.273 19.0382 184.273 17.3813V9.625Z" fill="white"/>
</svg>
