<svg xmlns="http://www.w3.org/2000/svg" width="1200" height="808" viewBox="0 0 1200 808" fill="none">
  <rect width="1200" height="808" fill="#050505"/>
  <rect x="360" y="20" width="480" height="56" rx="24" fill="#66F082"/>
  <text x="600" y="56" text-anchor="middle" fill="#070707" font-family="Inter, Arial, sans-serif" font-size="36" font-weight="800">SOCIETY</text>

  <line x1="590" y1="76" x2="590" y2="140" stroke="#66F082" stroke-width="5"/>
  <line x1="610" y1="76" x2="610" y2="140" stroke="#66F082" stroke-width="5"/>
  <line x1="590" y1="110" x2="572" y2="128" stroke="#66F082" stroke-width="5"/>
  <line x1="590" y1="110" x2="608" y2="128" stroke="#66F082" stroke-width="5"/>
  <line x1="610" y1="110" x2="592" y2="128" stroke="#66F082" stroke-width="5"/>
  <line x1="610" y1="110" x2="628" y2="128" stroke="#66F082" stroke-width="5"/>

  <rect x="80" y="130" width="1040" height="170" rx="14" stroke="#D9D9D9" stroke-width="2" stroke-dasharray="6 6"/>
  <rect x="370" y="115" width="460" height="46" rx="10" fill="#EFEFEF"/>
  <text x="600" y="146" text-anchor="middle" fill="#151515" font-family="Inter, Arial, sans-serif" font-size="17" font-weight="800">AWARENESS, RELIABILITY &amp; PROTECTION</text>
  <text x="150" y="235" text-anchor="middle" fill="#F1F1F1" font-family="Inter, Arial, sans-serif" font-size="15" font-weight="600">JOURNALISTS</text>
  <text x="300" y="235" text-anchor="middle" fill="#F1F1F1" font-family="Inter, Arial, sans-serif" font-size="15" font-weight="600">LAWYERS</text>
  <text x="450" y="235" text-anchor="middle" fill="#F1F1F1" font-family="Inter, Arial, sans-serif" font-size="15" font-weight="600">FOUNDATIONS</text>
  <text x="600" y="235" text-anchor="middle" fill="#F1F1F1" font-family="Inter, Arial, sans-serif" font-size="15" font-weight="600">POLICYMAKERS</text>
  <text x="750" y="235" text-anchor="middle" fill="#F1F1F1" font-family="Inter, Arial, sans-serif" font-size="15" font-weight="600">MOVEMENTS</text>
  <text x="930" y="235" text-anchor="middle" fill="#F1F1F1" font-family="Inter, Arial, sans-serif" font-size="15" font-weight="600">ACADEMICS</text>

  <line x1="590" y1="300" x2="590" y2="340" stroke="#66F082" stroke-width="5"/>
  <line x1="610" y1="300" x2="610" y2="340" stroke="#66F082" stroke-width="5"/>

  <rect x="575" y="340" width="50" height="250" rx="25" fill="#050505" stroke="#66F082" stroke-width="5"/>
  <text x="600" y="468" text-anchor="middle" fill="#F0F0F0" font-family="Domine, Georgia, serif" font-size="30" font-weight="700" transform="rotate(-90 600 468)">web3privacy now</text>

  <rect x="20" y="380" width="480" height="170" rx="14" stroke="#D9D9D9" stroke-width="2" stroke-dasharray="6 6"/>
  <rect x="55" y="365" width="410" height="44" rx="10" fill="#EFEFEF"/>
  <text x="260" y="393" text-anchor="middle" fill="#151515" font-family="Inter, Arial, sans-serif" font-size="17" font-weight="800">IDEOLOGY &amp; CULTURE DEVELOPMENT</text>
  <text x="100" y="495" text-anchor="middle" fill="#F1F1F1" font-family="Inter, Arial, sans-serif" font-size="15" font-weight="600">ARTISTS</text>
  <text x="260" y="495" text-anchor="middle" fill="#F1F1F1" font-family="Inter, Arial, sans-serif" font-size="15" font-weight="600">SOCIAL SCIENTISTS</text>
  <text x="410" y="495" text-anchor="middle" fill="#F1F1F1" font-family="Inter, Arial, sans-serif" font-size="15" font-weight="600">LINGUISTS</text>

  <rect x="700" y="380" width="480" height="170" rx="14" stroke="#D9D9D9" stroke-width="2" stroke-dasharray="6 6"/>
  <rect x="760" y="365" width="360" height="44" rx="10" fill="#EFEFEF"/>
  <text x="940" y="393" text-anchor="middle" fill="#151515" font-family="Inter, Arial, sans-serif" font-size="17" font-weight="800">PRACTICAL DEVELOPMENT</text>
  <text x="820" y="495" text-anchor="middle" fill="#F1F1F1" font-family="Inter, Arial, sans-serif" font-size="15" font-weight="600">DEVELOPERS</text>
  <text x="945" y="495" text-anchor="middle" fill="#F1F1F1" font-family="Inter, Arial, sans-serif" font-size="15" font-weight="600">FOSS</text>
  <text x="1080" y="495" text-anchor="middle" fill="#F1F1F1" font-family="Inter, Arial, sans-serif" font-size="15" font-weight="600">VOLUNTEERS</text>

  <line x1="590" y1="590" x2="590" y2="640" stroke="#66F082" stroke-width="5"/>
  <line x1="610" y1="590" x2="610" y2="640" stroke="#66F082" stroke-width="5"/>

  <rect x="75" y="620" width="1050" height="160" rx="14" stroke="#D9D9D9" stroke-width="2" stroke-dasharray="6 6"/>
  <rect x="390" y="604" width="420" height="46" rx="10" fill="#EFEFEF"/>
  <text x="600" y="636" text-anchor="middle" fill="#151515" font-family="Inter, Arial, sans-serif" font-size="17" font-weight="800">IDEAS AND USE-CASE GENERATION</text>
  <text x="190" y="735" text-anchor="middle" fill="#F1F1F1" font-family="Inter, Arial, sans-serif" font-size="15" font-weight="600">ACADEMICS</text>
  <text x="390" y="735" text-anchor="middle" fill="#F1F1F1" font-family="Inter, Arial, sans-serif" font-size="15" font-weight="600">NGO &amp; NON-PROFIT</text>
  <text x="600" y="735" text-anchor="middle" fill="#F1F1F1" font-family="Inter, Arial, sans-serif" font-size="15" font-weight="600">GOVERMENTS</text>
  <text x="810" y="735" text-anchor="middle" fill="#F1F1F1" font-family="Inter, Arial, sans-serif" font-size="15" font-weight="600">PHILOSOPHERS</text>
  <text x="1000" y="735" text-anchor="middle" fill="#F1F1F1" font-family="Inter, Arial, sans-serif" font-size="15" font-weight="600">INVENTORS</text>
</svg>
